<svg width="13" height="13" viewBox="0 0 13 13" fill="none" xmlns="http://www.w3.org/2000/svg">
<path d="M4.96237 6.29433C4.94612 6.29433 4.93529 6.29433 4.91904 6.29433C4.89195 6.28891 4.85404 6.28891 4.82154 6.29433C3.2507 6.24558 2.06445 5.01058 2.06445 3.4885C2.06445 1.93933 3.32654 0.677246 4.8757 0.677246C6.42487 0.677246 7.68695 1.93933 7.68695 3.4885C7.68154 5.01058 6.48987 6.24558 4.97862 6.29433C4.9732 6.29433 4.96779 6.29433 4.96237 6.29433ZM4.8757 1.48975C3.77612 1.48975 2.87695 2.38891 2.87695 3.4885C2.87695 4.57183 3.72195 5.44391 4.79987 5.48183C4.83237 5.47641 4.90279 5.47641 4.9732 5.48183C6.03487 5.43308 6.86904 4.561 6.87445 3.4885C6.87445 2.38891 5.97529 1.48975 4.8757 1.48975Z" fill="#48B7F2"/>
<path d="M8.95781 6.36442C8.94156 6.36442 8.92531 6.36442 8.90906 6.359C8.68698 6.38067 8.45948 6.22359 8.43781 6.0015C8.41615 5.77942 8.55156 5.579 8.77365 5.55192C8.83865 5.5465 8.90906 5.5465 8.96864 5.5465C9.75948 5.50317 10.377 4.85317 10.377 4.05692C10.377 3.23359 9.71073 2.56734 8.8874 2.56734C8.66531 2.57275 8.48115 2.38859 8.48115 2.1665C8.48115 1.94442 8.66531 1.76025 8.8874 1.76025C10.1549 1.76025 11.1895 2.79484 11.1895 4.06234C11.1895 5.30817 10.2145 6.31567 8.97406 6.36442C8.96864 6.36442 8.96323 6.36442 8.95781 6.36442Z" fill="#48B7F2"/>
<path d="M4.96565 12.2149C3.90398 12.2149 2.8369 11.9441 2.02982 11.4024C1.2769 10.9041 0.865234 10.2216 0.865234 9.47949C0.865234 8.73741 1.2769 8.04949 2.02982 7.54574C3.65482 6.46783 6.28732 6.46783 7.90148 7.54574C8.64898 8.04408 9.06607 8.72658 9.06607 9.46866C9.06607 10.2107 8.6544 10.8987 7.90148 11.4024C7.08898 11.9441 6.02732 12.2149 4.96565 12.2149ZM2.4794 8.22824C1.9594 8.57491 1.67773 9.01908 1.67773 9.48491C1.67773 9.94533 1.96482 10.3895 2.4794 10.7307C3.82815 11.6353 6.10315 11.6353 7.4519 10.7307C7.9719 10.3841 8.25357 9.93991 8.25357 9.47408C8.25357 9.01366 7.96648 8.56949 7.4519 8.22824C6.10315 7.32908 3.82815 7.32908 2.4794 8.22824Z" fill="#48B7F2"/>
<path d="M9.9345 11.2396C9.74492 11.2396 9.577 11.1096 9.53908 10.9146C9.49575 10.6925 9.63658 10.4813 9.85325 10.4325C10.1945 10.3621 10.5087 10.2267 10.7524 10.0371C11.0612 9.80418 11.2291 9.51168 11.2291 9.20293C11.2291 8.89418 11.0612 8.60168 10.7578 8.37418C10.5195 8.19001 10.2216 8.06001 9.8695 7.97876C9.65283 7.93001 9.512 7.71334 9.56075 7.49126C9.6095 7.27459 9.82617 7.13376 10.0482 7.18251C10.5141 7.28543 10.9203 7.46959 11.2507 7.72418C11.7545 8.10334 12.0416 8.63959 12.0416 9.20293C12.0416 9.76626 11.7491 10.3025 11.2453 10.6871C10.9095 10.9471 10.487 11.1367 10.0212 11.2288C9.98867 11.2396 9.96158 11.2396 9.9345 11.2396Z" fill="#48B7F2"/>
</svg>
