<svg width="24" height="24" viewBox="0 0 24 24" fill="none" xmlns="http://www.w3.org/2000/svg">
<g clip-path="url(#clip0_927_662)">
<rect width="24" height="24" rx="12" fill="white"/>
<g clip-path="url(#clip1_927_662)">
<path d="M0 0H32V24H0V0Z" fill="#EE1C25"/>
<path d="M3.83842 8.8799L5.99839 2.3999L8.15836 8.8799L2.39844 4.9199H9.59835L3.83842 8.8799Z" fill="#FFFF00"/>
<path d="M13.2077 2.52394L10.9848 3.01654L12.4675 1.28871L12.3221 3.61415L11.0885 1.55544L13.2077 2.52394Z" fill="#FFFF00"/>
<path d="M15.4535 5.36754L13.2135 4.95946L15.2503 3.94194L14.2144 6.02896L13.8758 3.65296L15.4535 5.36754Z" fill="#FFFF00"/>
<path d="M15.1267 9.35606L13.2479 8.06989L15.5226 7.97157L13.7256 9.4546L14.3855 7.14711L15.1267 9.35606Z" fill="#FFFF00"/>
<path d="M12.2987 11.962L11.0625 10.05L13.1986 10.8379L10.9682 11.5118L12.4681 9.63823L12.2987 11.962Z" fill="#FFFF00"/>
</g>
</g>
<defs>
<clipPath id="clip0_927_662">
<rect width="24" height="24" rx="12" fill="white"/>
</clipPath>
<clipPath id="clip1_927_662">
<rect width="32" height="24" fill="white"/>
</clipPath>
</defs>
</svg>
