<svg width="68" height="68" viewBox="0 0 68 68" fill="none" xmlns="http://www.w3.org/2000/svg">
<g clip-path="url(#clip0_927_649)">
<rect width="68" height="68" rx="34" fill="white"/>
<g clip-path="url(#clip1_927_649)">
<path d="M0 0H90.6667V68H0V0Z" fill="#EE1C25"/>
<path d="M10.8807 25.1603L17.0007 6.80029L23.1206 25.1603L6.80078 13.9403H27.2005L10.8807 25.1603Z" fill="#FFFF00"/>
<path d="M37.4256 7.15116L31.1275 8.54687L35.3286 3.65135L34.9165 10.2401L31.4214 4.40707L37.4256 7.15116Z" fill="#FFFF00"/>
<path d="M43.7809 15.2082L37.4344 14.052L43.2053 11.169L40.2702 17.0822L39.3109 10.3502L43.7809 15.2082Z" fill="#FFFF00"/>
<path d="M42.8556 26.509L37.5325 22.8648L43.9775 22.5863L38.8859 26.7882L40.7556 20.2503L42.8556 26.509Z" fill="#FFFF00"/>
<path d="M34.8501 33.893L31.3475 28.4757L37.4 30.708L31.0806 32.6173L35.3303 27.3089L34.8501 33.893Z" fill="#FFFF00"/>
</g>
</g>
<defs>
<clipPath id="clip0_927_649">
<rect width="68" height="68" rx="34" fill="white"/>
</clipPath>
<clipPath id="clip1_927_649">
<rect width="90.6667" height="68" fill="white"/>
</clipPath>
</defs>
</svg>
