<svg width="71" height="64" viewBox="0 0 71 64" fill="none" xmlns="http://www.w3.org/2000/svg">
<path d="M10.625 63.75V56.6667H60.2083V63.75H10.625ZM10.625 51.3542L6.10938 22.9323C5.99133 22.9323 5.85792 22.9476 5.70917 22.9783C5.56042 23.009 5.4282 23.0232 5.31251 23.0208C3.83681 23.0208 2.58306 22.5038 1.55126 21.4696C0.519452 20.4354 0.00236916 19.1817 8.04924e-06 17.7083C-0.00235306 16.235 0.51473 14.9813 1.55126 13.9471C2.58779 12.9129 3.84154 12.3958 5.31251 12.3958C6.78348 12.3958 8.03841 12.9129 9.0773 13.9471C10.1162 14.9813 10.6321 16.235 10.625 17.7083C10.625 18.1215 10.5801 18.5052 10.4904 18.8594C10.4007 19.2135 10.298 19.5382 10.1823 19.8333L21.25 24.7917L32.3177 9.65105C31.6684 9.17883 31.1372 8.55904 30.724 7.79167C30.3108 7.02431 30.1042 6.19792 30.1042 5.31251C30.1042 3.83681 30.6213 2.58188 31.6554 1.54772C32.6896 0.51355 33.9433 -0.00235304 35.4167 8.06757e-06C36.89 0.00236918 38.1449 0.519452 39.1815 1.55126C40.218 2.58306 40.7339 3.83681 40.7292 5.31251C40.7292 6.19792 40.5226 7.02431 40.1094 7.79167C39.6962 8.55904 39.1649 9.17883 38.5156 9.65105L49.5833 24.7917L60.651 19.8333C60.533 19.5382 60.4291 19.2135 60.3394 18.8594C60.2497 18.5052 60.206 18.1215 60.2083 17.7083C60.2083 16.2326 60.7254 14.9777 61.7596 13.9435C62.7938 12.9094 64.0475 12.3935 65.5208 12.3958C66.9942 12.3982 68.2491 12.9153 69.2856 13.9471C70.3222 14.9789 70.8381 16.2326 70.8333 17.7083C70.8286 19.184 70.3127 20.439 69.2856 21.4731C68.2585 22.5073 67.0036 23.0232 65.5208 23.0208C65.4028 23.0208 65.2706 23.0067 65.1242 22.9783C64.9778 22.95 64.8444 22.9347 64.724 22.9323L60.2083 51.3542H10.625ZM16.6458 44.2708H54.1875L56.4896 29.4844L47.1927 33.5573L35.4167 17.3542L23.6406 33.5573L14.3438 29.4844L16.6458 44.2708Z" fill="white"/>
</svg>
