<svg width="20" height="17" viewBox="0 0 20 17" fill="none" xmlns="http://www.w3.org/2000/svg">
<path d="M5.333 2.5C5.333 1.90326 5.57005 1.33097 5.99201 0.90901C6.41397 0.487053 6.98626 0.25 7.583 0.25H9.166C9.7535 0.249831 10.3178 0.479457 10.7382 0.889805C11.1586 1.30015 11.4019 1.85867 11.416 2.446C11.643 2.271 11.908 2.138 12.202 2.059L14.455 1.455C14.7404 1.37848 15.0381 1.35893 15.3311 1.39747C15.6241 1.43602 15.9066 1.5319 16.1625 1.67964C16.4185 1.82738 16.6428 2.02409 16.8227 2.25853C17.0026 2.49298 17.1345 2.76056 17.211 3.046L19.93 13.19C20.0842 13.7663 20.0033 14.3803 19.7049 14.8969C19.4066 15.4136 18.9153 15.7905 18.339 15.945L16.085 16.549C15.5087 16.7036 14.8946 16.6229 14.3777 16.3247C13.8609 16.0266 13.4837 15.5353 13.329 14.959L11.417 7.823V14.251C11.417 14.8477 11.1799 15.42 10.758 15.842C10.336 16.2639 9.76374 16.501 9.167 16.501H7.583C7.02937 16.5019 6.49501 16.2978 6.083 15.928C5.67099 16.2978 5.13663 16.5019 4.583 16.501H2.25C1.95444 16.501 1.66178 16.4428 1.38873 16.3296C1.11568 16.2165 0.867601 16.0507 0.658656 15.8416C0.449711 15.6326 0.283999 15.3844 0.170984 15.1113C0.05797 14.8382 -0.000131137 14.5456 2.22242e-07 14.25V4.75C2.22242e-07 4.15326 0.237053 3.58097 0.65901 3.15901C1.08097 2.73705 1.65326 2.5 2.25 2.5H4.583C4.846 2.5 5.099 2.545 5.333 2.628V2.5ZM5.333 14.25V4.728C5.32728 4.53293 5.24574 4.34776 5.1057 4.21184C4.96566 4.07591 4.77816 3.99992 4.583 4H2.25C2.05109 4 1.86032 4.07902 1.71967 4.21967C1.57902 4.36032 1.5 4.55109 1.5 4.75V14.25C1.5 14.664 1.836 15 2.25 15H4.583C4.7785 15.0001 4.96629 14.9238 5.10638 14.7874C5.24647 14.6511 5.32779 14.4654 5.333 14.27V14.25ZM7.583 15H9.166C9.36491 15 9.55568 14.921 9.69633 14.7803C9.83698 14.6397 9.916 14.4489 9.916 14.25V2.5C9.916 2.30109 9.83698 2.11032 9.69633 1.96967C9.55568 1.82902 9.36491 1.75 9.166 1.75H7.583C7.38409 1.75 7.19332 1.82902 7.05267 1.96967C6.91202 2.11032 6.833 2.30109 6.833 2.5V14.27C6.83821 14.4654 6.91953 14.6511 7.05962 14.7874C7.19971 14.9238 7.38751 15.0001 7.583 15ZM12.06 4.427L14.777 14.569C14.8025 14.6642 14.8465 14.7533 14.9065 14.8315C14.9666 14.9096 15.0414 14.9752 15.1267 15.0244C15.212 15.0736 15.3062 15.1055 15.4039 15.1183C15.5016 15.1311 15.6009 15.1246 15.696 15.099L17.949 14.495C18.1409 14.4434 18.3046 14.3178 18.404 14.1457C18.5033 13.9735 18.5303 13.769 18.479 13.577L15.763 3.435C15.7114 3.24305 15.5858 3.07942 15.4137 2.98004C15.2415 2.88066 15.037 2.85368 14.845 2.905L12.591 3.508C12.4958 3.53352 12.4067 3.57754 12.3285 3.63755C12.2504 3.69755 12.1848 3.77236 12.1356 3.8577C12.0864 3.94304 12.0545 4.03725 12.0417 4.13493C12.0289 4.23261 12.0344 4.33186 12.06 4.427Z" fill="#48B7F2"/>
</svg>
