<svg width="9" height="12" viewBox="0 0 9 12" fill="none" xmlns="http://www.w3.org/2000/svg">
<path fill-rule="evenodd" clip-rule="evenodd" d="M2.98229 0.125584C3.06002 0.0450128 3.16227 0 3.27273 0H6.95455C8.08364 0 9 0.959571 9 2.14286V9.85714C9 11.0404 8.08364 12 6.95455 12H2.04545C0.916364 12 0 11.0404 0 9.85714V3.42857C0 3.315 0.045016 3.20573 0.118652 3.12558L2.98229 0.125584ZM3.27273 1.03457V3.42857H0.985923L3.27273 1.03457ZM0.818182 4.28571H3.68182C3.90682 4.28571 4.09091 4.09371 4.09091 3.85714V0.857143H6.95455C7.63364 0.857143 8.18182 1.43271 8.18182 2.14286V9.85714C8.18182 10.5673 7.63364 11.1429 6.95455 11.1429H2.04545C1.36636 11.1429 0.818182 10.5673 0.818182 9.85714V4.28571Z" fill="#48B7F2"/>
</svg>
