<svg width="28" height="19" viewBox="0 0 28 19" fill="none" xmlns="http://www.w3.org/2000/svg">
<path d="M7.25616 0.193359C4.263 0.193359 1.81404 2.91442 1.81404 6.24016C1.81404 8.23964 2.7002 10.0194 4.05347 11.1219C1.66166 12.4402 0 15.1733 0 18.3338H1.81404C1.81404 14.9838 4.24123 12.287 7.25616 12.287C10.2711 12.287 12.6983 14.9838 12.6983 18.3338H14.5123C14.5123 14.9838 16.9395 12.287 19.9545 12.287C22.9694 12.287 25.3966 14.9838 25.3966 18.3338H27.2106C27.2106 15.1723 25.549 12.4402 23.1571 11.1219C23.85 10.5616 24.4139 9.82739 24.8031 8.97907C25.1922 8.13075 25.3956 7.19232 25.3966 6.24016C25.3966 2.91442 22.9476 0.193359 19.9545 0.193359C16.9613 0.193359 14.5123 2.91442 14.5123 6.24016C14.5123 8.23964 15.3985 10.0194 16.7518 11.1219C15.4264 11.8457 14.3295 12.9985 13.6053 14.4285C12.8811 12.9985 11.7842 11.8457 10.4589 11.1219C11.1517 10.5616 11.7156 9.82739 12.1048 8.97907C12.4939 8.13075 12.6973 7.19232 12.6983 6.24016C12.6983 2.91442 10.2493 0.193359 7.25616 0.193359ZM7.25616 2.20896C9.27247 2.20896 10.8842 3.99982 10.8842 6.24016C10.8842 8.4805 9.27247 10.2714 7.25616 10.2714C5.23986 10.2714 3.62808 8.4805 3.62808 6.24016C3.62808 3.99982 5.23986 2.20896 7.25616 2.20896ZM19.9545 2.20896C21.9708 2.20896 23.5825 3.99982 23.5825 6.24016C23.5825 8.4805 21.9708 10.2714 19.9545 10.2714C17.9381 10.2714 16.3264 8.4805 16.3264 6.24016C16.3264 3.99982 17.9381 2.20896 19.9545 2.20896Z" fill="#48B7F2"/>
</svg>
