<svg width="29" height="29" viewBox="0 0 29 29" fill="none" xmlns="http://www.w3.org/2000/svg">
<path d="M3.0081 25.3908C3.0081 25.6461 3.22115 25.8532 3.48398 25.8532H25.3736C25.6363 25.8532 25.8494 25.6462 25.8494 25.391V24.8389C25.8604 24.6726 25.8826 23.8422 25.3354 22.9244C24.9902 22.3456 24.4894 21.8456 23.8467 21.4383C23.0692 20.9457 22.0801 20.5887 20.8837 20.3737C20.8748 20.3726 19.9878 20.255 19.0791 20.0229C17.4965 19.6186 17.3582 19.2609 17.3572 19.2574C17.3479 19.222 17.3345 19.1881 17.3172 19.1561C17.3043 19.0894 17.2723 18.8383 17.3334 18.1654C17.4886 16.4563 18.4054 15.4462 19.1421 14.6347C19.3744 14.3786 19.5938 14.1369 19.7628 13.8998C20.4917 12.8771 20.5593 11.7142 20.5624 11.6421C20.5624 11.4961 20.5456 11.376 20.5098 11.2647C20.4382 11.042 20.3035 10.9033 20.2053 10.802C20.1805 10.7765 20.1565 10.7516 20.1374 10.7294C20.13 10.7209 20.1107 10.6985 20.1283 10.5833C20.193 10.1595 20.2319 9.80468 20.2505 9.4666C20.2837 8.86427 20.3096 7.96348 20.1542 7.08681C20.1351 6.9371 20.1021 6.77897 20.0508 6.5906C19.8866 5.98692 19.6229 5.47078 19.2565 5.04483C19.1935 4.97627 17.6616 3.36228 13.2143 3.03111C12.5993 2.98533 11.9914 3.01 11.393 3.04058C11.2487 3.04771 11.0512 3.0575 10.8664 3.10539C10.4072 3.22433 10.2847 3.51537 10.2525 3.67826C10.1992 3.94806 10.2929 4.15793 10.3549 4.29684C10.364 4.31698 10.3751 4.3419 10.3557 4.40674C10.2524 4.56662 10.09 4.71075 9.92444 4.8473C9.87658 4.88798 8.76139 5.84956 8.70007 7.10569C8.53472 8.06101 8.54723 9.54945 8.74276 10.5782C8.75412 10.635 8.77089 10.7191 8.74366 10.7759C8.5334 10.9644 8.29507 11.1779 8.29567 11.6652C8.2982 11.7142 8.36584 12.8771 9.09478 13.8998C9.26361 14.1367 9.48283 14.3783 9.71497 14.6341C10.4516 15.4456 11.3689 16.4563 11.5242 18.1653C11.5853 18.8382 11.5533 19.0894 11.5403 19.1561C11.5231 19.188 11.5096 19.222 11.5004 19.2574C11.4994 19.2609 11.3616 19.6174 9.78622 20.0208C8.87737 20.2535 7.98266 20.3725 7.95597 20.3763C6.79334 20.5725 5.81029 20.9207 5.03417 21.4108C4.39362 21.8154 3.89182 22.3163 3.54271 22.8996C2.98492 23.8317 3 24.6805 3.0081 24.8355V25.3908Z" stroke="#48B7F2" stroke-width="2.06141" stroke-linejoin="round"/>
</svg>
