<svg width="25" height="26" viewBox="0 0 25 26" fill="none" xmlns="http://www.w3.org/2000/svg">
<path d="M12.3066 20.5964C12.7395 20.5964 13.1056 20.4417 13.4049 20.1322C13.7042 19.8227 13.8535 19.4445 13.8527 18.9978C13.8518 18.551 13.7026 18.1725 13.4049 17.8621C13.1073 17.5518 12.7412 17.3974 12.3066 17.3991C11.8721 17.4008 11.5064 17.5556 11.2095 17.8634C10.9127 18.1712 10.763 18.5493 10.7606 18.9978C10.7581 19.4463 10.9077 19.8248 11.2095 20.1335C11.5113 20.4421 11.877 20.5964 12.3066 20.5964ZM11.1935 15.6726H13.4816C13.4816 14.9692 13.5591 14.415 13.7141 14.01C13.8692 13.605 14.307 13.0508 15.0277 12.3474C15.5636 11.7932 15.9862 11.2655 16.2954 10.7641C16.6046 10.2628 16.7593 9.66085 16.7593 8.9583C16.7593 7.76465 16.3367 6.84809 15.4915 6.20864C14.6463 5.56918 13.6465 5.24945 12.4921 5.24945C11.3171 5.24945 10.3639 5.56918 9.63255 6.20864C8.90117 6.84809 8.39076 7.61544 8.10134 8.51068L10.1421 9.34198C10.2452 8.9583 10.4773 8.54266 10.8385 8.09504C11.1996 7.64742 11.7509 7.42361 12.4921 7.42361C13.1518 7.42361 13.6465 7.61033 13.9764 7.98377C14.3062 8.35721 14.4711 8.76732 14.4711 9.21409C14.4711 9.64039 14.3474 10.0403 14.1 10.4137C13.8527 10.7871 13.5435 11.1333 13.1724 11.4522C12.2654 12.2835 11.7088 12.9123 11.5027 13.3386C11.2965 13.7649 11.1935 14.5429 11.1935 15.6726ZM12.3685 25.7121C10.6575 25.7121 9.04959 25.3766 7.54476 24.7056C6.03993 24.0346 4.73093 23.1231 3.61777 21.9713C2.50461 20.8194 1.62357 19.4659 0.974636 17.9107C0.325704 16.3555 0.000826129 14.693 1.56563e-06 12.9229C-0.000822998 11.1529 0.324055 9.49033 0.974636 7.93517C1.62522 6.38001 2.50626 5.02649 3.61777 3.87462C4.72929 2.72274 6.03828 1.81173 7.54476 1.14158C9.05124 0.471429 10.6591 0.135501 12.3685 0.133796C14.0778 0.13209 15.6857 0.468019 17.1922 1.14158C18.6986 1.81514 20.0076 2.72615 21.1191 3.87462C22.2306 5.02308 23.1121 6.3766 23.7635 7.93517C24.4149 9.49374 24.7394 11.1563 24.7369 12.9229C24.7344 14.6895 24.4096 16.3521 23.7623 17.9107C23.115 19.4693 22.2339 20.8228 21.1191 21.9713C20.0043 23.1197 18.6953 24.0312 17.1922 24.7056C15.689 25.38 14.0811 25.7155 12.3685 25.7121ZM12.3685 23.1542C15.1307 23.1542 17.4704 22.1631 19.3876 20.1808C21.3047 18.1985 22.2632 15.7792 22.2632 12.9229C22.2632 10.0667 21.3047 7.64742 19.3876 5.6651C17.4704 3.68278 15.1307 2.69162 12.3685 2.69162C9.60617 2.69162 7.26647 3.68278 5.34936 5.6651C3.43225 7.64742 2.47369 10.0667 2.47369 12.9229C2.47369 15.7792 3.43225 18.1985 5.34936 20.1808C7.26647 22.1631 9.60617 23.1542 12.3685 23.1542Z" fill="#48B7F2"/>
</svg>
