<svg width="50" height="50" viewBox="0 0 50 50" fill="none" xmlns="http://www.w3.org/2000/svg">
<path d="M0.201173 25.776C0.200001 29.9769 1.5 34.5 3.40977 37.6944L6.5 42.5L12.7406 46.7328C16.5 48.5 20.2128 49.6336 24.225 49.6339H24.2355C37.4807 49.6339 48.2625 38.9395 48.2682 25.7948C48.2707 19.4252 45.7731 13.4357 41.2352 8.92946C36.6981 4.42364 30.6639 1.94089 24.2346 1.93798C10.9879 1.93798 0.206642 12.6318 0.201173 25.776Z" fill="url(#paint0_linear_1_5)"/>
<path d="M18.8824 14.3698C18.4164 13.3421 17.926 13.3213 17.4828 13.3033C17.1199 13.2878 16.7051 13.289 16.2906 13.289C15.8758 13.289 15.2018 13.4438 14.632 14.061C14.0617 14.6789 12.4547 16.1719 12.4547 19.2085C12.4547 22.2452 14.6838 25.18 14.9945 25.5922C15.3057 26.0037 19.2978 32.4347 25.6205 34.9087C30.8752 36.9647 31.9445 36.5558 33.085 36.4527C34.2256 36.35 36.7654 34.9601 37.2836 33.5188C37.8021 32.0777 37.8021 30.8424 37.6467 30.5843C37.4912 30.3271 37.0764 30.1727 36.4543 29.8641C35.8322 29.5556 32.7738 28.0622 32.2037 27.8562C31.6334 27.6504 31.2187 27.5477 30.8039 28.1657C30.3891 28.7828 29.1978 30.1727 28.8348 30.5843C28.4721 30.9969 28.109 31.0483 27.4871 30.7395C26.8646 30.4298 24.8613 29.7789 22.4846 27.6764C20.6353 26.0403 19.3869 24.02 19.024 23.4019C18.6611 22.7849 18.9852 22.4504 19.2971 22.1428C19.5766 21.8663 19.9193 21.4221 20.2307 21.0618C20.5408 20.7014 20.6443 20.4442 20.8518 20.0326C21.0594 19.6205 20.9555 19.2601 20.8002 18.9514C20.6443 18.6426 19.4355 15.5901 18.8824 14.3698Z" fill="white"/>
<defs>
<linearGradient id="paint0_linear_1_5" x1="2413.41" y1="4812.89" x2="2413.41" y2="1.93798" gradientUnits="userSpaceOnUse">
<stop stop-color="#1FAF38"/>
<stop offset="1" stop-color="#60D669"/>
</linearGradient>
</defs>
</svg>
