<svg width="50" height="50" viewBox="0 0 50 50" fill="none" xmlns="http://www.w3.org/2000/svg">
<g clip-path="url(#clip0_1_2)">
<path d="M25 0C18.3711 0 12.0078 2.63555 7.32422 7.32227C2.63583 12.0109 0.0013416 18.3695 0 25C0 31.6277 2.63672 37.991 7.32422 42.6777C12.0078 47.3645 18.3711 50 25 50C31.6289 50 37.9922 47.3645 42.6758 42.6777C47.3633 37.991 50 31.6277 50 25C50 18.3723 47.3633 12.009 42.6758 7.32227C37.9922 2.63555 31.6289 0 25 0Z" fill="url(#paint0_linear_1_2)"/>
<path d="M11.3164 24.7359C18.6055 21.5609 23.4648 19.4677 25.8945 18.4563C32.8398 15.5684 34.2812 15.0668 35.2227 15.0498C35.4297 15.0465 35.8906 15.0977 36.1914 15.3408C36.4414 15.5459 36.5117 15.8232 36.5469 16.018C36.5781 16.2125 36.6211 16.6559 36.5859 17.002C36.2109 20.9551 34.582 30.5481 33.7539 34.9758C33.4062 36.8492 32.7148 37.4773 32.0469 37.5387C30.5937 37.6723 29.4922 36.5793 28.0859 35.6578C25.8867 34.2152 24.6445 33.3176 22.5078 31.9102C20.0391 30.2836 21.6406 29.3895 23.0469 27.9285C23.4141 27.5461 29.8125 21.7277 29.9336 21.2C29.9492 21.134 29.9648 20.8879 29.8164 20.7582C29.6719 20.6281 29.457 20.6727 29.3008 20.7078C29.0781 20.7578 25.5664 23.0813 18.7539 27.6777C17.7578 28.3629 16.8555 28.6969 16.043 28.6793C15.1523 28.6602 13.4336 28.1746 12.1562 27.7598C10.5937 27.2508 9.34765 26.9816 9.45703 26.1172C9.51172 25.6672 10.1328 25.2066 11.3164 24.7359Z" fill="white"/>
</g>
<defs>
<linearGradient id="paint0_linear_1_2" x1="2500" y1="0" x2="2500" y2="5000" gradientUnits="userSpaceOnUse">
<stop stop-color="#2AABEE"/>
<stop offset="1" stop-color="#229ED9"/>
</linearGradient>
<clipPath id="clip0_1_2">
<rect width="50" height="50" fill="white"/>
</clipPath>
</defs>
</svg>
