<svg width="46" height="47" viewBox="0 0 46 47" fill="none" xmlns="http://www.w3.org/2000/svg">
<path d="M42.8167 46.5L30.7417 34.425C29.7833 35.1917 28.6813 35.7986 27.4354 36.2458C26.1896 36.6931 24.8639 36.9167 23.4583 36.9167C19.9764 36.9167 17.0298 35.7104 14.6187 33.298C12.2075 30.8856 11.0013 27.939 11 24.4583C10.9987 20.9777 12.2049 18.0311 14.6187 15.6187C17.0324 13.2062 19.9789 12 23.4583 12C26.9377 12 29.8849 13.2062 32.2999 15.6187C34.7149 18.0311 35.9205 20.9777 35.9167 24.4583C35.9167 25.8639 35.6931 27.1896 35.2458 28.4354C34.7986 29.6812 34.1917 30.7833 33.425 31.7417L45.5 43.8167L42.8167 46.5ZM23.4583 33.0833C25.8542 33.0833 27.8909 32.2451 29.5687 30.5687C31.2464 28.8922 32.0846 26.8554 32.0833 24.4583C32.0821 22.0612 31.2438 20.0251 29.5687 18.3499C27.8935 16.6748 25.8567 15.8359 23.4583 15.8333C21.0599 15.8308 19.0238 16.6696 17.3499 18.3499C15.676 20.0302 14.8372 22.0663 14.8333 24.4583C14.8295 26.8503 15.6684 28.8871 17.3499 30.5687C19.0315 32.2502 21.0676 33.0884 23.4583 33.0833Z" fill="#48B7F2"/>
</svg>
