<svg width="31" height="31" viewBox="0 0 31 31" fill="none" xmlns="http://www.w3.org/2000/svg">
<path d="M6.34464 11.4188V26.6441H1.26953V11.4188H6.34464ZM11.4198 26.6441C10.7468 26.6441 10.1013 26.3768 9.62543 25.9009C9.14955 25.425 8.8822 24.7796 8.8822 24.1066V11.4188C8.8822 10.7209 9.16133 10.0866 9.63078 9.6298L17.9793 1.26855L19.3242 2.61346C19.6668 2.95603 19.8825 3.42548 19.8825 3.94568L19.8444 4.35168L18.6391 10.15H26.6451C27.3181 10.15 27.9635 10.4173 28.4394 10.8932C28.9153 11.3691 29.1826 12.0146 29.1826 12.6876V15.2251C29.1826 15.555 29.1192 15.8595 29.005 16.1513L25.1733 25.0962C24.7927 26.0097 23.8918 26.6441 22.8388 26.6441H11.4198ZM11.4198 24.1066H22.8768L26.6451 15.2251V12.6876H15.4925L16.9262 5.93766L11.4198 11.4568V24.1066Z" fill="white"/>
</svg>
