<svg width="285" height="213" viewBox="0 0 285 213" fill="none" xmlns="http://www.w3.org/2000/svg">
<ellipse cx="74.1664" cy="2.32923" rx="149.98" ry="147.045" transform="rotate(-42.9609 74.1664 2.32923)" fill="#97DFFF"/>
<path d="M51.4189 -20.5772C44.9969 -21.1002 46.4692 -30.856 40.2743 -32.5446C28.7214 -35.6937 22.8043 -17.6442 24.5206 -5.78224C25.4219 0.446769 30.0245 2.4492 31.9861 8.41025C35.7643 19.8917 27.6063 28.2335 31.8602 39.5397C34.8733 47.548 36.9148 53.43 44.5064 57.3655C54.4985 62.5454 62.1747 50.6835 73.2896 52.7634C78.6391 53.7645 80.993 58.7144 86.3461 57.5204C93.1947 55.9928 94.201 49.3302 96.6074 42.6785C99.0138 36.0267 103.268 30.4993 110.66 29.592C121.474 28.2648 117.853 45.9217 126.788 51.9286C132.85 56.0037 138.478 54.1505 144.373 58.4599C154.085 65.5602 154.89 79.3258 158.425 85.9012C161.96 92.4765 165.966 94.3849 172.67 88.8466C179.374 83.3082 178.75 70.1628 181.634 57.9444C185.045 43.4954 193.983 33.9907 188.129 20.5312C184.627 12.4786 177.493 11.542 172.838 4.11105C169.336 -1.48005 170.578 -6.62679 165.984 -11.3552C161.654 -15.811 156.54 -14.5816 151.747 -18.5374C140.939 -27.4567 147.665 -41.1309 139.084 -52.2063C132.932 -60.1473 129.515 -69.4138 119.374 -68.74C109.072 -68.0555 111.217 -52.2747 101.337 -49.1242C95.0623 -47.1231 90.1478 -47.3693 84.573 -49.3711C78.9982 -51.3729 72.1456 -54.315 67.0722 -49.6369C62.3018 -45.2384 65.2824 -38.315 65.0612 -33.2815C64.8401 -28.2479 58.5964 -19.9926 51.4189 -20.5772Z" fill="#64D224" stroke="#64D224" stroke-width="10.3389"/>
<path d="M-33.7119 6.64232C-33.1867 18.011 -22.5655 30.3879 -20.2045 32.2406C-17.8435 34.0932 -13.062 36.497 -14.1999 30.155C-15.3379 23.813 -17.8844 17.7736 -16.3369 9.94004C-13.2333 -5.77081 13.5847 -2.2426 13.8801 -18.1993C14.0665 -28.2632 14.3893 -30.5016 2.49132 -41.0958C-9.40667 -51.6901 -21.3167 -55.2838 -32.2493 -61.3346C-43.1818 -67.3855 -52.1988 -46.9167 -56.0825 -39.1403C-59.9662 -31.3639 -65.1372 -16.2942 -56.5545 -15.3269C-47.9719 -14.3595 -33.7827 -20.7272 -29.8537 -10.9749C-27.25 -4.51211 -34.0353 -0.357394 -33.7119 6.64232Z" fill="#64D224" stroke="#64D224" stroke-width="10.3389"/>
<path d="M3.52341 75.4955C-11.9605 68.3154 -37.4684 69.9286 -40.2432 71.3615C-43.0179 72.7944 1.73229 121.479 1.73229 121.479C1.73229 121.479 34.6847 151.083 67.2453 143.922C99.8059 136.762 97.4119 135.974 111.778 131.229C126.143 126.484 84.7687 116.093 84.7687 116.093C84.7687 116.093 77.2935 83.7009 60.7808 80.8789C47.2496 78.5665 42.3797 98.1544 28.7689 96.3015C16.0147 94.5652 15.1419 80.8831 3.52341 75.4955Z" fill="#64D224" stroke="#64D224" stroke-width="10.3389"/>
</svg>
