<svg width="641" height="641" viewBox="0 0 641 641" fill="none" xmlns="http://www.w3.org/2000/svg">
<ellipse cx="323.597" cy="323.842" rx="226.613" ry="222.179" transform="rotate(-42.9609 323.597 323.842)" fill="#97DFFF"/>
<path d="M289.226 289.232C279.523 288.441 281.747 273.701 272.387 271.149C254.931 266.391 245.991 293.663 248.584 311.586C249.946 320.998 256.9 324.024 259.864 333.03C265.573 350.378 253.246 362.983 259.674 380.066C264.226 392.166 267.311 401.053 278.782 407C293.879 414.826 305.478 396.904 322.272 400.046C330.355 401.559 333.911 409.038 342 407.234C352.348 404.926 353.868 394.859 357.504 384.808C361.14 374.758 367.568 366.406 378.737 365.035C395.076 363.03 389.605 389.709 403.106 398.785C412.265 404.942 420.768 402.142 429.675 408.653C444.35 419.382 445.566 440.181 450.907 450.116C456.249 460.051 462.301 462.934 472.431 454.566C482.561 446.198 481.618 426.336 485.976 407.874C491.129 386.043 504.635 371.681 495.79 351.345C490.498 339.178 479.719 337.762 472.685 326.535C467.394 318.087 469.271 310.31 462.329 303.166C455.787 296.433 448.06 298.291 440.818 292.314C424.488 278.837 434.65 258.176 421.685 241.441C412.389 229.443 407.225 215.442 391.903 216.46C376.337 217.494 379.578 241.338 364.651 246.098C355.169 249.122 347.744 248.75 339.32 245.725C330.897 242.701 320.543 238.255 312.877 245.324C305.67 251.97 310.173 262.431 309.839 270.036C309.505 277.641 300.071 290.115 289.226 289.232Z" fill="#64D224" stroke="#64D224" stroke-width="15.6216"/>
<path d="M465.635 284.129C469.176 286.397 471.546 288.185 475.783 287.826C480.304 287.442 483.025 285.414 485.801 281.784C489.982 276.314 488.963 270.793 486.881 264.344C483.033 252.428 460.61 241.95 458.935 248.734C457.26 255.519 453.841 276.572 465.635 284.129Z" fill="#64D224" stroke="#64D224" stroke-width="15.6216"/>
<path d="M270.504 114.171C247.823 121.633 226.627 137.29 218.074 145.944C209.522 154.599 238.303 143.017 248.64 148.937C259.689 155.264 269.596 163.357 266.84 175.94C264.81 185.211 253.909 190.907 249.888 193.571C246.671 195.703 246.197 184.402 240.942 182.932C231.485 180.286 233.497 207.201 233.497 207.201C233.497 207.201 237.75 227.996 240.247 236.251C242.744 244.505 237.026 209.088 249.098 204.151C263.512 198.256 249.651 233.554 252.086 243.533C254.521 253.512 261.346 250.856 265.329 238.637C269.313 226.418 273.877 216.758 278.151 205.818C282.425 194.879 303.622 208.828 308.379 197.538C314.122 183.905 272.827 187.803 279.137 174.414C283.375 165.423 294.4 157.935 302.267 163.743C309.213 168.872 296.002 181.118 303.122 186.005C308.293 189.554 315.111 183.104 319.339 185.705C323.567 188.306 335.66 190.211 340.452 193.159C345.244 196.106 348.771 191.012 354.209 190.555C361.721 189.923 366.832 195.462 373.424 191.703C384.977 185.116 365.392 159.099 365.392 159.099C365.392 159.099 359.895 145.065 351.986 143.74C341.4 141.967 342.166 169.448 332.959 164.048C327.36 160.763 317.122 153.384 326.599 148.675C336.077 143.966 344.796 139.386 357.184 135.476C370.905 131.145 384.733 140.063 393.278 128.433C405.225 112.174 345.261 111.544 345.261 111.544C345.261 111.544 298.394 104.997 270.504 114.171Z" fill="#64D224" stroke="#64D224" stroke-width="15.6216"/>
<path d="M160.596 330.359C161.39 347.537 177.438 366.238 181.005 369.037C184.573 371.837 191.797 375.468 190.078 365.886C188.358 356.304 184.511 347.178 186.849 335.342C191.538 311.604 232.059 316.935 232.506 292.825C232.787 277.618 233.275 274.236 215.298 258.229C197.32 242.222 179.325 236.792 162.806 227.649C146.287 218.506 132.663 249.434 126.795 261.184C120.927 272.934 113.114 295.703 126.082 297.165C139.05 298.626 160.489 289.005 166.426 303.741C170.36 313.505 160.107 319.783 160.596 330.359Z" fill="#64D224" stroke="#64D224" stroke-width="15.6216"/>
<path d="M216.858 434.393C193.462 423.544 154.921 425.982 150.728 428.147C146.536 430.312 214.151 503.872 214.151 503.872C214.151 503.872 263.941 548.603 313.139 537.783C362.337 526.964 358.719 525.773 380.425 518.603C402.131 511.434 339.616 495.735 339.616 495.735C339.616 495.735 328.321 446.791 303.371 442.527C282.926 439.033 275.568 468.63 255.003 465.83C235.732 463.207 234.413 442.534 216.858 434.393Z" fill="#64D224" stroke="#64D224" stroke-width="15.6216"/>
</svg>
