<svg width="414" height="250" viewBox="0 0 414 250" fill="none" xmlns="http://www.w3.org/2000/svg">
<ellipse cx="214.225" cy="309.018" rx="262.993" ry="268.301" transform="rotate(-79.0905 214.225 309.018)" fill="#97DFFF"/>
<path d="M156.073 299.661C146.105 305.495 137.675 290.074 126.775 294.013C106.446 301.361 117.368 333.166 132.75 348.324C140.828 356.284 149.738 354.423 159.077 360.914C177.065 373.417 174.174 393.673 192.668 405.438C205.768 413.772 215.138 420.068 230.521 417.901C250.768 415.05 249.135 390.267 267.662 381.843C276.58 377.789 285.396 382.436 291.937 375.248C300.305 366.051 294.549 355.518 290.855 343.566C287.16 331.614 287.391 319.371 297.227 310.502C311.618 297.528 325.474 326.42 345.071 325.831C358.366 325.431 364.594 317.021 377.899 317.126C399.82 317.3 415.934 336.107 428.243 341.861C440.552 347.616 448.487 346.233 452.291 331.465C456.096 316.696 440.921 298.588 431.886 278.208C421.201 254.106 423.974 231.391 400.801 218.195C386.937 210.3 375.478 216.275 360.601 210.447C349.408 206.062 345.643 197.449 333.787 195.414C322.615 193.496 316.462 200.489 305.154 199.76C279.655 198.115 274.665 171.721 250.087 164.719C232.465 159.699 217.408 149.985 203.295 161.337C188.956 172.871 209.219 193.178 198.174 207.795C191.16 217.079 183.698 221.764 173.366 224.622C163.033 227.48 149.81 230.306 147.458 242.177C145.248 253.338 157.123 260.157 162.26 267.563C167.398 274.968 167.215 293.139 156.073 299.661Z" fill="#64D224" stroke="#64D224" stroke-width="15.6216"/>
<path d="M323.351 175.233C328.412 174.973 331.991 175.053 335.838 171.84C339.943 168.412 341.123 164.652 341.205 159.343C341.328 151.345 336.377 146.825 329.728 142.15C317.444 133.512 288.196 138.83 291.445 146.369C294.693 153.909 306.499 176.1 323.351 175.233Z" fill="#64D224" stroke="#64D224" stroke-width="15.6216"/>
<path d="M12.229 147.124C-4.38804 169.549 -13.6803 198.703 -15.7516 212.672C-17.8228 226.641 1.74488 196.19 16.01 194.767C31.2586 193.245 46.6683 194.165 53.034 207.91C57.7243 218.038 51.2531 230.808 49.2703 236.049C47.6842 240.243 39.1106 229.897 32.9633 232.074C21.9006 235.99 43.1778 260.031 43.1778 260.031C43.1778 260.031 62.2305 276.774 70.577 282.872C78.9234 288.969 47.9516 259.418 56.1022 246.571C65.8342 231.231 77.7511 273.948 87.2763 281.716C96.8015 289.483 101.506 282.348 96.5913 268.113C91.6766 253.879 89.1618 241.665 85.4471 228.441C81.7323 215.217 112.285 214.007 108.786 200.124C104.561 183.363 67.3526 215.047 63.8517 198.13C61.5008 186.77 66.8063 172.225 78.5986 172.372C89.0101 172.502 85.0047 193.02 95.4121 192.804C102.97 192.648 104.944 181.935 110.908 181.523C116.872 181.11 129.957 174.707 136.716 174.239C143.475 173.771 143.234 166.571 148.174 162.451C154.999 156.761 163.928 158.522 167.615 150.504C174.078 136.45 136.42 125.177 136.42 125.177C136.42 125.177 121.018 115.658 112.404 119.772C100.875 125.278 121.35 150.697 108.553 151.844C100.769 152.541 85.5519 152.52 91.3522 141.647C97.1525 130.775 102.312 120.539 111.505 108.447C121.689 95.0527 141.49 94.0928 141.418 77.3196C141.317 53.8712 82.7689 93.9444 82.7689 93.9444C82.7689 93.9444 32.662 119.55 12.229 147.124Z" fill="#64D224" stroke="#64D224" stroke-width="15.6216"/>
</svg>
