<svg width="12" height="12" viewBox="0 0 12 12" fill="none" xmlns="http://www.w3.org/2000/svg">
<path fill-rule="evenodd" clip-rule="evenodd" d="M0.615107 7.73307L7.58338 0.75721C8.59624 -0.252403 10.2308 -0.252403 11.2436 0.75721C12.2521 1.77117 12.2521 3.40741 11.2436 4.42137L4.27529 11.3973C4.19269 11.48 4.08403 11.5235 3.96666 11.5235C3.84929 11.5235 3.74063 11.48 3.65804 11.3973L3.08855 10.8272L2.31912 11.6018C1.78878 12.1327 0.928094 12.1327 0.397755 11.6018C-0.132585 11.0709 -0.132585 10.2093 0.397755 9.67836L1.17149 8.90808L0.615107 8.35104C0.445572 8.18132 0.445572 7.90279 0.615107 7.73307ZM1.53668 8.04209L3.96666 10.4747L10.6263 3.80346C11.3001 3.13328 11.3001 2.0453 10.6263 1.37513C9.95687 0.700603 8.87013 0.700603 8.20068 1.37513L1.53668 8.04209ZM1.78444 9.5217L2.4756 10.2136L1.70187 10.9839C1.51495 11.1754 1.20627 11.1754 1.015 10.9839C0.823731 10.7968 0.823731 10.4878 1.015 10.2963L1.78444 9.5217Z" fill="#48B7F2"/>
</svg>
