<svg width="25" height="26" viewBox="0 0 25 26" fill="none" xmlns="http://www.w3.org/2000/svg">
<path d="M8.98406 25.5783L8.49178 21.4858C8.22513 21.3792 7.97407 21.2513 7.7386 21.1021C7.50312 20.9529 7.27216 20.793 7.04572 20.6225L3.3844 22.2212L0 16.1463L3.16903 13.6524C3.14852 13.5032 3.13827 13.3596 3.13827 13.2214V12.3582C3.13827 12.2192 3.14852 12.0751 3.16903 11.9259L0 9.432L3.3844 3.35715L7.04572 4.9558C7.27134 4.78528 7.50723 4.62541 7.75336 4.47621C7.9995 4.327 8.24564 4.19911 8.49178 4.09253L8.98406 0H15.7529L16.2451 4.09253C16.5118 4.19911 16.7633 4.327 16.9996 4.47621C17.2359 4.62541 17.4664 4.78528 17.6912 4.9558L21.3525 3.35715L24.7369 9.432L21.5679 11.9259C21.5884 12.0751 21.5987 12.2192 21.5987 12.3582V13.2202C21.5987 13.3591 21.5781 13.5032 21.5371 13.6524L24.7062 16.1463L21.3217 22.2212L17.6912 20.6225C17.4656 20.793 17.2297 20.9529 16.9836 21.1021C16.7374 21.2513 16.4913 21.3792 16.2451 21.4858L15.7529 25.5783H8.98406ZM11.1378 23.0205H13.5684L13.9991 19.6314C14.635 19.4608 15.2249 19.2106 15.7689 18.8806C16.3128 18.5507 16.81 18.1508 17.2605 17.681L20.3064 18.9919L21.5064 16.8177L18.8604 14.7395C18.9629 14.4411 19.0347 14.1269 19.0757 13.7969C19.1168 13.467 19.1373 13.1311 19.1373 12.7892C19.1373 12.4473 19.1168 12.1118 19.0757 11.7827C19.0347 11.4535 18.9629 11.1389 18.8604 10.8388L21.5064 8.76057L20.3064 6.58642L17.2605 7.92928C16.8092 7.43903 16.312 7.02892 15.7689 6.69896C15.2257 6.369 14.6358 6.11833 13.9991 5.94696L13.5992 2.55783H11.1685L10.7378 5.94696C10.1019 6.11748 9.51243 6.36815 8.96929 6.69896C8.42614 7.02977 7.92853 7.42922 7.47646 7.89731L4.43049 6.58642L3.23057 8.76057L5.87656 10.8068C5.774 11.1266 5.70221 11.4463 5.66119 11.766C5.62016 12.0858 5.59965 12.4268 5.59965 12.7892C5.59965 13.1302 5.62016 13.4606 5.66119 13.7803C5.70221 14.1 5.774 14.4198 5.87656 14.7395L3.23057 16.8177L4.43049 18.9919L7.47646 17.649C7.92771 18.1393 8.42532 18.5498 8.96929 18.8806C9.51325 19.2114 10.1028 19.4617 10.7378 19.6314L11.1378 23.0205ZM12.43 17.2654C13.6197 17.2654 14.635 16.8284 15.476 15.9545C16.3169 15.0805 16.7374 14.0254 16.7374 12.7892C16.7374 11.5529 16.3169 10.4978 15.476 9.62384C14.635 8.74991 13.6197 8.31295 12.43 8.31295C11.2198 8.31295 10.1992 8.74991 9.36803 9.62384C8.53691 10.4978 8.12175 11.5529 8.12257 12.7892C8.12339 14.0254 8.53896 15.0805 9.36926 15.9545C10.1996 16.8284 11.2198 17.2654 12.43 17.2654Z" fill="white"/>
</svg>
