<svg width="25" height="27" viewBox="0 0 25 27" fill="none" xmlns="http://www.w3.org/2000/svg">
<path d="M8.98406 26.2604L8.49178 22.1679C8.22513 22.0613 7.97407 21.9334 7.7386 21.7842C7.50312 21.635 7.27216 21.4752 7.04572 21.3046L3.3844 22.9033L0 16.8284L3.16903 14.3346C3.14852 14.1853 3.13827 14.0417 3.13827 13.9036V13.0403C3.13827 12.9013 3.14852 12.7572 3.16903 12.608L0 10.1141L3.3844 4.03928L7.04572 5.63793C7.27134 5.4674 7.50723 5.30754 7.75336 5.15833C7.9995 5.00913 8.24564 4.88124 8.49178 4.77466L8.98406 0.682129H15.7529L16.2451 4.77466C16.5118 4.88124 16.7633 5.00913 16.9996 5.15833C17.2359 5.30754 17.4664 5.4674 17.6912 5.63793L21.3525 4.03928L24.7369 10.1141L21.5679 12.608C21.5884 12.7572 21.5987 12.9013 21.5987 13.0403V13.9023C21.5987 14.0413 21.5781 14.1853 21.5371 14.3346L24.7062 16.8284L21.3218 22.9033L17.6912 21.3046C17.4656 21.4752 17.2297 21.635 16.9836 21.7842C16.7374 21.9334 16.4913 22.0613 16.2451 22.1679L15.7529 26.2604H8.98406ZM11.1378 23.7026H13.5684L13.9991 20.3135C14.635 20.143 15.2249 19.8927 15.7689 19.5628C16.3128 19.2328 16.81 18.8329 17.2605 18.3631L20.3064 19.674L21.5064 17.4999L18.8604 15.4216C18.9629 15.1232 19.0347 14.809 19.0757 14.4791C19.1168 14.1491 19.1373 13.8132 19.1373 13.4713C19.1373 13.1294 19.1168 12.7939 19.0757 12.4648C19.0347 12.1357 18.9629 11.8211 18.8604 11.5209L21.5064 9.4427L20.3064 7.26854L17.2605 8.61141C16.8092 8.12115 16.312 7.71105 15.7689 7.38109C15.2257 7.05113 14.6358 6.80046 13.9991 6.62909L13.5992 3.23996H11.1685L10.7378 6.62909C10.1019 6.79961 9.51243 7.05028 8.96929 7.38109C8.42614 7.7119 7.92853 8.11135 7.47646 8.57943L4.43049 7.26854L3.23057 9.4427L5.87656 11.489C5.774 11.8087 5.70221 12.1284 5.66119 12.4482C5.62016 12.7679 5.59965 13.1089 5.59965 13.4713C5.59965 13.8123 5.62016 14.1427 5.66119 14.4624C5.70221 14.7822 5.774 15.1019 5.87656 15.4216L3.23057 17.4999L4.43049 19.674L7.47646 18.3312C7.92771 18.8214 8.42532 19.2319 8.96929 19.5628C9.51326 19.8936 10.1028 20.1438 10.7378 20.3135L11.1378 23.7026ZM12.43 17.9475C13.6197 17.9475 14.635 17.5105 15.476 16.6366C16.3169 15.7627 16.7374 14.7076 16.7374 13.4713C16.7374 12.235 16.3169 11.1799 15.476 10.306C14.635 9.43204 13.6197 8.99508 12.43 8.99508C11.2198 8.99508 10.1992 9.43204 9.36803 10.306C8.53691 11.1799 8.12175 12.235 8.12257 13.4713C8.12339 14.7076 8.53896 15.7627 9.36926 16.6366C10.1996 17.5105 11.2198 17.9475 12.43 17.9475Z" fill="#48B7F2"/>
</svg>
