<svg width="28" height="28" viewBox="0 0 28 28" fill="none" xmlns="http://www.w3.org/2000/svg">
<path d="M21.9641 5.77979L23.0612 6.14507C24.2056 6.52655 24.7778 6.71728 25.1049 7.17158C25.4321 7.62588 25.4321 8.23046 25.4321 9.43499V9.51938C25.4321 10.5135 25.4321 11.0117 25.1928 11.4187C24.9535 11.8256 24.5177 12.0672 23.6484 12.5515L20.2302 14.4496M5.78044 5.77979L4.68341 6.14507C3.53899 6.52655 2.96678 6.71728 2.63964 7.17158C2.3125 7.62588 2.3125 8.23046 2.3125 9.43499V9.51938C2.3125 10.5135 2.3125 11.0117 2.55179 11.4187C2.79108 11.8256 3.22688 12.0672 4.09618 12.5515L7.51441 14.4496" stroke="white" stroke-width="1.90317"/>
<path d="M13.873 18.4956V21.9635" stroke="white" stroke-width="1.90317" stroke-linecap="round"/>
<path d="M17.918 25.4315H9.82617L10.2192 23.4709C10.2716 23.209 10.413 22.9732 10.6196 22.8038C10.8261 22.6343 11.0849 22.5417 11.3521 22.5415H16.3921C16.6593 22.5417 16.9181 22.6343 17.1246 22.8038C17.3312 22.9732 17.4726 23.209 17.525 23.4709L17.918 25.4315Z" stroke="white" stroke-width="1.90317" stroke-linecap="round" stroke-linejoin="round"/>
<path d="M20.8084 25.4314H6.93668M19.6525 2.83892C20.509 3.00191 21.0177 3.18224 21.4558 3.72324C22.0072 4.40064 21.9783 5.13238 21.9193 6.59585C21.7112 11.859 20.5322 18.4955 13.8737 18.4955C7.21527 18.4955 6.03502 11.8602 5.82463 6.59585C5.76683 5.13238 5.73793 4.39949 6.28702 3.72324C6.83727 3.04584 7.49502 2.93486 8.81168 2.71291C10.4846 2.43888 12.1774 2.30471 13.8726 2.31179C14.7033 2.31333 15.474 2.33953 16.1845 2.3904" stroke="white" stroke-width="1.90317" stroke-linecap="round"/>
</svg>
