<svg width="31" height="31" viewBox="0 0 31 31" fill="none" xmlns="http://www.w3.org/2000/svg">
<g clip-path="url(#clip0_908_410)">
<path d="M15.2253 0C23.3587 0 30.4507 6.71437 30.4507 14.4641C30.4507 22.0828 23.5186 28.0786 15.2253 28.0786C13.4515 28.0798 11.6888 27.7992 10.003 27.2473C9.29659 27.9324 9.0545 28.1653 7.55481 29.6117C6.47381 30.4278 5.45676 30.7049 4.54781 30.1903C3.63124 29.6726 3.35566 28.6647 3.54293 27.3371L4.15195 23.8063C1.50731 21.3185 0 18.0298 0 14.4641C0 6.71437 7.09044 0 15.2253 0ZM15.2253 2.13155C8.24299 2.13155 2.13155 7.91717 2.13155 14.4641C2.13155 17.5776 3.5201 20.4446 5.96833 22.5792L5.99878 22.6051L6.45097 22.9979L6.34896 23.5917L6.13885 24.8158L6.08252 25.1416L5.6486 27.6659C5.62373 27.836 5.60848 28.0073 5.60292 28.179V28.3237C5.60292 28.3308 5.60191 28.3349 5.59988 28.3359C5.61053 28.3206 5.8176 28.2552 6.17235 27.9963L9.47625 24.7899L10.1066 25.0274C11.744 25.638 13.4777 25.95 15.2253 25.9485C22.4056 25.9485 28.3191 20.8328 28.3191 14.4641C28.3191 7.9187 22.2077 2.13155 15.2253 2.13155ZM7.95828 11.8956C8.26501 11.8843 8.57085 11.9351 8.85752 12.0447C9.1442 12.1544 9.40584 12.3207 9.6268 12.5337C9.84776 12.7468 10.0235 13.0021 10.1435 13.2846C10.2636 13.5671 10.3255 13.8709 10.3255 14.1778C10.3255 14.4848 10.2636 14.7885 10.1435 15.071C10.0235 15.3535 9.84776 15.6089 9.6268 15.8219C9.40584 16.035 9.1442 16.2013 8.85752 16.3109C8.57085 16.4206 8.26501 16.4713 7.95828 16.4601C7.36741 16.4385 6.80794 16.1886 6.39755 15.763C5.98717 15.3373 5.75786 14.7691 5.75786 14.1778C5.75786 13.5866 5.98717 13.0183 6.39755 12.5927C6.80794 12.167 7.36741 11.9171 7.95828 11.8956ZM15.5679 11.8956C15.8746 11.8843 16.1805 11.9351 16.4671 12.0447C16.7538 12.1544 17.0155 12.3207 17.2364 12.5337C17.4574 12.7468 17.6331 13.0021 17.7532 13.2846C17.8732 13.5671 17.9351 13.8709 17.9351 14.1778C17.9351 14.4848 17.8732 14.7885 17.7532 15.071C17.6331 15.3535 17.4574 15.6089 17.2364 15.8219C17.0155 16.035 16.7538 16.2013 16.4671 16.3109C16.1805 16.4206 15.8746 16.4713 15.5679 16.4601C14.977 16.4385 14.4176 16.1886 14.0072 15.763C13.5968 15.3373 13.3675 14.7691 13.3675 14.1778C13.3675 13.5866 13.5968 13.0183 14.0072 12.5927C14.4176 12.167 14.977 11.9171 15.5679 11.8956ZM23.176 11.8956C23.4827 11.8843 23.7886 11.9351 24.0752 12.0447C24.3619 12.1544 24.6236 12.3207 24.8445 12.5337C25.0655 12.7468 25.2412 13.0021 25.3613 13.2846C25.4813 13.5671 25.5432 13.8709 25.5432 14.1778C25.5432 14.4848 25.4813 14.7885 25.3613 15.071C25.2412 15.3535 25.0655 15.6089 24.8445 15.8219C24.6236 16.035 24.3619 16.2013 24.0752 16.3109C23.7886 16.4206 23.4827 16.4713 23.176 16.4601C22.5851 16.4385 22.0257 16.1886 21.6153 15.763C21.2049 15.3373 20.9756 14.7691 20.9756 14.1778C20.9756 13.5866 21.2049 13.0183 21.6153 12.5927C22.0257 12.167 22.5851 11.9171 23.176 11.8956Z" fill="white"/>
</g>
<defs>
<clipPath id="clip0_908_410">
<rect width="30.4507" height="30.4507" fill="white"/>
</clipPath>
</defs>
</svg>
