<svg width="8" height="12" viewBox="0 0 8 12" fill="none" xmlns="http://www.w3.org/2000/svg">
<path d="M8 0.333333C8 0.15 7.82857 0 7.61905 0C7.40952 0 7.2381 0.15 7.2381 0.333333V4.5C7.2381 6.06333 5.78667 7.33333 4 7.33333C2.21333 7.33333 0.761905 6.06333 0.761905 4.5V0.333333C0.761905 0.15 0.590476 0 0.380952 0C0.171429 0 0 0.15 0 0.333333V4.5C0 6.43333 1.79048 8 4 8C6.20952 8 8 6.43333 8 4.5V0.333333Z" fill="#48B7F2"/>
<path d="M7.57895 12C7.81053 12 8 11.775 8 11.5C8 11.225 7.81053 11 7.57895 11H0.421053C0.189474 11 0 11.225 0 11.5C0 11.775 0.189474 12 0.421053 12H7.57895Z" fill="#48B7F2"/>
</svg>
