<svg width="13" height="13" viewBox="0 0 13 13" fill="none" xmlns="http://www.w3.org/2000/svg">
<path d="M3.01668 12.2958C1.74918 12.2958 0.676681 11.2233 0.676681 9.95577V6.6191C0.649598 5.03744 1.2346 3.54785 2.32876 2.43202C3.42293 1.3216 4.89085 0.704102 6.47251 0.704102C9.70085 0.704102 12.3225 3.33119 12.3225 6.5541V9.89077C12.3225 11.1799 11.2717 12.2308 9.98251 12.2308C8.71501 12.2308 7.64251 11.1583 7.64251 9.89077V8.36868C7.64251 7.58327 8.26001 6.96577 9.04543 6.96577C9.83085 6.96577 10.4483 7.58327 10.4483 8.36868V10.0099C10.4483 10.232 10.2642 10.4162 10.0421 10.4162C9.82001 10.4162 9.63585 10.232 9.63585 10.0099V8.36868C9.63585 8.00035 9.33793 7.77827 9.04543 7.77827C8.6771 7.77827 8.45501 8.07618 8.45501 8.36868V9.89077C8.45501 10.7195 9.15376 11.4183 9.98251 11.4183C10.8113 11.4183 11.51 10.7195 11.51 9.89077V6.5541C11.51 3.77535 9.25126 1.5166 6.47251 1.5166C5.11293 1.5166 3.85085 2.04202 2.90835 3.00077C1.96585 3.95952 1.4621 5.24327 1.48918 6.60827V9.95577C1.48918 10.7845 2.18793 11.4833 3.01668 11.4833C3.84543 11.4833 4.54418 10.7845 4.54418 9.95577V8.43368C4.54418 8.06535 4.24626 7.84327 3.95376 7.84327C3.58543 7.84327 3.36335 8.14118 3.36335 8.43368V10.0154C3.36335 10.2374 3.17918 10.4216 2.9571 10.4216C2.73501 10.4216 2.55085 10.2374 2.55085 10.0154V8.43368C2.55085 7.64827 3.16835 7.03077 3.95376 7.03077C4.73918 7.03077 5.35668 7.64827 5.35668 8.43368V9.95577C5.35668 11.2233 4.28418 12.2958 3.01668 12.2958Z" fill="#48B7F2"/>
</svg>
