<svg width="12" height="11" viewBox="0 0 12 11" fill="none" xmlns="http://www.w3.org/2000/svg">
<path fill-rule="evenodd" clip-rule="evenodd" d="M2.26962 2.41959L4.57559 0.407345C5.61531 -0.500461 7.28207 0.20797 7.28207 1.55763V8.72215C7.28207 10.0718 5.61531 10.7802 4.57559 9.87244L2.26962 7.8602H2.0228C0.906214 7.8602 0 6.99009 0 5.91712V4.36266C0 3.2897 0.906214 2.41959 2.0228 2.41959H2.26962ZM5.11764 0.982488C5.63952 0.528585 6.47295 0.882606 6.47295 1.55763V8.72215C6.47295 9.39718 5.63952 9.7512 5.11764 9.2973L2.70243 7.18674C2.62961 7.12223 2.53254 7.08297 2.42736 7.08297H2.0228C1.35123 7.08297 0.809119 6.56106 0.809119 5.91712V4.36266C0.809119 3.71873 1.35123 3.19682 2.0228 3.19682H2.42736C2.53254 3.19682 2.62961 3.15756 2.70243 3.09383L5.11764 0.982488Z" fill="#48B7F2"/>
<path d="M9.11219 1.52766C8.92205 1.41496 8.67522 1.4717 8.5579 1.65435C8.44058 1.83738 8.50129 2.07678 8.69144 2.18909C9.78779 2.83964 10.5201 4.00547 10.5201 5.33492C10.5201 6.66438 9.78779 7.83021 8.69144 8.48075C8.50129 8.59306 8.44058 8.83246 8.5579 9.0155C8.67522 9.19815 8.92205 9.25488 9.11219 9.14219C10.4432 8.35641 11.3292 6.94534 11.3292 5.33492C11.3292 3.7245 10.4432 2.31344 9.11219 1.52766Z" fill="#48B7F2"/>
<path d="M8.75754 4.06863C8.58763 3.92873 8.33279 3.947 8.18715 4.10983C8.04151 4.27227 8.06178 4.51786 8.2317 4.65776C8.3652 4.76969 8.49462 5.01218 8.49462 5.33473C8.49462 5.65728 8.3652 5.89978 8.2317 6.0117C8.06178 6.1516 8.04151 6.3972 8.18715 6.55964C8.33279 6.72247 8.58763 6.74074 8.75754 6.60084C9.10951 6.31132 9.30374 5.83372 9.30374 5.33473C9.30374 4.83575 9.10951 4.35815 8.75754 4.06863Z" fill="#48B7F2"/>
</svg>
